<svg width="current" height="current" viewBox="0 0 24 24" fill="none" xmlns="http://www.w3.org/2000/svg">
<mask id="mask0_504_63" style="mask-type:alpha" maskUnits="userSpaceOnUse" x="0" y="0" width="24" height="24">
<rect width="24" height="24" fill="#D9D9D9"/>
</mask>
<g mask="url(#mask0_504_63)">
<path d="M4.07187 20.2032C3.44216 20.2032 2.90556 19.9814 2.46207 19.538C2.01861 19.0945 1.79688 18.5579 1.79688 17.9282V6.07166C1.79688 5.44194 2.01862 4.90534 2.46213 4.46186C2.90559 4.01837 3.44218 3.79663 4.0719 3.79663H19.9284C20.5581 3.79663 21.0947 4.01837 21.5382 4.46186C21.9817 4.90534 22.2034 5.44194 22.2034 6.07166V17.9282C22.2034 18.5579 21.9817 19.0945 21.5382 19.538C21.0947 19.9814 20.5581 20.2032 19.9284 20.2032H4.07187ZM4.07187 17.9282H19.9284V8.07166H4.07187V17.9282ZM7.50013 16.9999L6.10013 15.5999L8.67513 12.9999L6.07513 10.3999L7.50013 8.99991L11.5001 12.9999L7.50013 16.9999ZM12.0001 16.9999V14.9999H18.0001V16.9999H12.0001Z" fill="#1C1B1F"/>
</g>
</svg>
