<svg width="current" height="current" viewBox="0 0 24 24" fill="none" xmlns="http://www.w3.org/2000/svg">
<mask id="mask0_553_108" style="mask-type:alpha" maskUnits="userSpaceOnUse" x="0" y="0" width="24" height="24">
<rect width="24" height="24" transform="matrix(-1 0 0 1 24 0)" fill="#D9D9D9"/>
</mask>
<g mask="url(#mask0_553_108)">
<path d="M16 11C15.7167 11 15.4792 10.9042 15.2875 10.7125C15.0958 10.5208 15 10.2833 15 10C15 9.71667 15.0958 9.47917 15.2875 9.2875C15.4792 9.09583 15.7167 9 16 9C16.2833 9 16.5208 9.09583 16.7125 9.2875C16.9042 9.47917 17 9.71667 17 10C17 10.2833 16.9042 10.5208 16.7125 10.7125C16.5208 10.9042 16.2833 11 16 11ZM12 11C11.7167 11 11.4792 10.9042 11.2875 10.7125C11.0958 10.5208 11 10.2833 11 10C11 9.71667 11.0958 9.47917 11.2875 9.2875C11.4792 9.09583 11.7167 9 12 9C12.2833 9 12.5208 9.09583 12.7125 9.2875C12.9042 9.47917 13 9.71667 13 10C13 10.2833 12.9042 10.5208 12.7125 10.7125C12.5208 10.9042 12.2833 11 12 11ZM8 11C7.71667 11 7.47917 10.9042 7.2875 10.7125C7.09583 10.5208 7 10.2833 7 10C7 9.71667 7.09583 9.47917 7.2875 9.2875C7.47917 9.09583 7.71667 9 8 9C8.28333 9 8.52083 9.09583 8.7125 9.2875C8.90417 9.47917 9 9.71667 9 10C9 10.2833 8.90417 10.5208 8.7125 10.7125C8.52083 10.9042 8.28333 11 8 11ZM22 22V4C22 3.45 21.8042 2.97917 21.4125 2.5875C21.0208 2.19583 20.55 2 20 2H4C3.45 2 2.97917 2.19583 2.5875 2.5875C2.19583 2.97917 2 3.45 2 4V16C2 16.55 2.19583 17.0208 2.5875 17.4125C2.97917 17.8042 3.45 18 4 18H18L22 22ZM18.85 16H4V4H20V17.125L18.85 16Z" fill="#1C1B1F"/>
</g>
</svg>
