<svg width="current" height="current" viewBox="0 0 24 24" fill="none" xmlns="http://www.w3.org/2000/svg">
<mask id="mask0_178_206" style="mask-type:alpha" maskUnits="userSpaceOnUse" x="0" y="0" width="24" height="24">
<rect width="24" height="24" fill="#D9D9D9"/>
</mask>
<g mask="url(#mask0_178_206)">
<path d="M10.4065 11.9163C9.87529 11.9163 9.43896 11.7174 9.09747 11.3195C8.75601 10.9217 8.63291 10.4576 8.7282 9.92715L9.0043 8.2527C9.13763 7.51212 9.48472 6.90568 10.0456 6.4334C10.6064 5.96112 11.2579 5.72498 11.9999 5.72498C12.759 5.72498 13.4189 5.96112 13.9796 6.4334C14.5403 6.90568 14.8873 7.51212 15.0206 8.2527L15.2967 9.92715C15.392 10.4576 15.2689 10.9217 14.9274 11.3195C14.5859 11.7174 14.1496 11.9163 13.6184 11.9163H10.4065ZM3.0865 12.9444C2.6922 12.9615 2.35257 12.8838 2.06762 12.7111C1.78266 12.5385 1.59851 12.273 1.51517 11.9146C1.48184 11.761 1.47351 11.6062 1.49017 11.4503C1.50684 11.2943 1.5505 11.1496 1.62115 11.0163C1.62115 11.0369 1.61281 11.0013 1.59615 10.9095C1.56281 10.8727 1.47748 10.669 1.34015 10.2984C1.30681 10.0913 1.33181 9.89291 1.41515 9.70312C1.49848 9.51334 1.60881 9.34979 1.74615 9.21248C1.74215 9.21248 1.76081 9.19581 1.80212 9.16248C1.83642 8.83739 1.96937 8.56364 2.20097 8.34123C2.43256 8.11879 2.7199 8.00758 3.063 8.00758C3.11698 8.00758 3.27898 8.04091 3.549 8.10758L3.62495 8.08258C3.71226 7.99924 3.82436 7.93575 3.96125 7.8921C4.09811 7.84843 4.24354 7.8266 4.39752 7.8266C4.58574 7.8266 4.75366 7.85677 4.9013 7.9171C5.04895 7.97742 5.16489 8.06746 5.24912 8.18723C5.26597 8.18723 5.27861 8.1915 5.28705 8.20005C5.29546 8.20862 5.3081 8.2129 5.32495 8.2129C5.56081 8.23 5.7696 8.30272 5.9513 8.43105C6.133 8.55937 6.26679 8.73473 6.35267 8.95715C6.38601 9.07692 6.39851 9.19241 6.39017 9.30363C6.38184 9.41484 6.36101 9.52178 6.32767 9.62443C6.32767 9.63711 6.33601 9.67243 6.35267 9.7304C6.47306 9.85045 6.56765 9.98337 6.63645 10.1292C6.70523 10.2749 6.73962 10.425 6.73962 10.5793C6.73962 10.6579 6.68763 10.8369 6.58365 11.1163C6.56698 11.1456 6.56698 11.181 6.58365 11.2223L6.63365 11.6335C6.63365 11.9934 6.48388 12.3018 6.18435 12.5588C5.88483 12.8159 5.52078 12.9444 5.0922 12.9444H3.0865ZM19.9987 12.9641C19.4336 12.9641 18.9492 12.7622 18.5456 12.3583C18.142 11.9544 17.9402 11.4689 17.9402 10.9017C17.9402 10.6955 17.9704 10.5029 18.0309 10.3238C18.0914 10.1448 18.1734 9.96996 18.2771 9.79943L17.5532 9.1565C17.3825 9.01518 17.3524 8.84253 17.4627 8.63855C17.573 8.43457 17.7313 8.33258 17.9374 8.33258H19.9986C20.5654 8.33258 21.0497 8.53404 21.4513 8.93698C21.8529 9.33991 22.0537 9.82429 22.0537 10.3901V10.9045C22.0537 11.4703 21.8525 11.955 21.4501 12.3587C21.0476 12.7623 20.5639 12.9641 19.9987 12.9641ZM-0.0957031 18.0956V16.425C-0.0957031 15.6627 0.283997 15.052 1.0434 14.593C1.8028 14.1339 2.78831 13.9043 3.99995 13.9043C4.18473 13.9043 4.36018 13.9075 4.5263 13.9138C4.69243 13.9202 4.85521 13.936 5.01462 13.9614C4.77332 14.3107 4.59135 14.6865 4.4687 15.089C4.34605 15.4914 4.28472 15.9201 4.28472 16.375V18.0956H-0.0957031ZM5.9043 18.0956V16.375C5.9043 15.2631 6.46722 14.365 7.59307 13.6807C8.71892 12.9965 10.1876 12.6543 11.9991 12.6543C13.8276 12.6543 15.3008 12.9965 16.4187 13.6807C17.5366 14.365 18.0956 15.2631 18.0956 16.375V18.0956H5.9043ZM19.9999 13.9043C21.2286 13.9043 22.2184 14.1339 22.9693 14.593C23.7202 15.052 24.0956 15.6627 24.0956 16.425V18.0956H19.7152V16.375C19.7152 15.9202 19.658 15.4917 19.5437 15.0895C19.4294 14.6872 19.2579 14.3112 19.0293 13.9614C19.1887 13.936 19.3485 13.9202 19.5088 13.9138C19.669 13.9075 19.8327 13.9043 19.9999 13.9043Z" fill="#1C1B1F"/>
</g>
</svg>
