<svg width="135" height="36" viewBox="0 0 135 36" fill="none" xmlns="http://www.w3.org/2000/svg">
<mask id="mask0_238_640" style="mask-type:alpha" maskUnits="userSpaceOnUse" x="0" y="0" width="36" height="36">
<rect width="36" height="36" fill="#D9D9D9"/>
</mask>
<g mask="url(#mask0_238_640)">
<path d="M6.75 18.1875C5.7 18.1875 4.8125 17.825 4.0875 17.1C3.3625 16.375 3 15.4875 3 14.4375C3 13.3875 3.3625 12.5 4.0875 11.775C4.8125 11.05 5.7 10.6875 6.75 10.6875C7.8 10.6875 8.6875 11.05 9.4125 11.775C10.1375 12.5 10.5 13.3875 10.5 14.4375C10.5 15.4875 10.1375 16.375 9.4125 17.1C8.6875 17.825 7.8 18.1875 6.75 18.1875ZM13.5 12.1875C12.45 12.1875 11.5625 11.825 10.8375 11.1C10.1125 10.375 9.75 9.4875 9.75 8.4375C9.75 7.3875 10.1125 6.5 10.8375 5.775C11.5625 5.05 12.45 4.6875 13.5 4.6875C14.55 4.6875 15.4375 5.05 16.1625 5.775C16.8875 6.5 17.25 7.3875 17.25 8.4375C17.25 9.4875 16.8875 10.375 16.1625 11.1C15.4375 11.825 14.55 12.1875 13.5 12.1875ZM22.5 12.1875C21.45 12.1875 20.5625 11.825 19.8375 11.1C19.1125 10.375 18.75 9.4875 18.75 8.4375C18.75 7.3875 19.1125 6.5 19.8375 5.775C20.5625 5.05 21.45 4.6875 22.5 4.6875C23.55 4.6875 24.4375 5.05 25.1625 5.775C25.8875 6.5 26.25 7.3875 26.25 8.4375C26.25 9.4875 25.8875 10.375 25.1625 11.1C24.4375 11.825 23.55 12.1875 22.5 12.1875ZM29.25 18.1875C28.2 18.1875 27.3125 17.825 26.5875 17.1C25.8625 16.375 25.5 15.4875 25.5 14.4375C25.5 13.3875 25.8625 12.5 26.5875 11.775C27.3125 11.05 28.2 10.6875 29.25 10.6875C30.3 10.6875 31.1875 11.05 31.9125 11.775C32.6375 12.5 33 13.3875 33 14.4375C33 15.4875 32.6375 16.375 31.9125 17.1C31.1875 17.825 30.3 18.1875 29.25 18.1875ZM9.975 33.1875C8.85 33.1875 7.90625 32.7563 7.14375 31.8938C6.38125 31.0313 6 30.0125 6 28.8375C6 27.5375 6.44375 26.4 7.33125 25.425C8.21875 24.45 9.1 23.4875 9.975 22.5375C10.7 21.7625 11.325 20.9188 11.85 20.0063C12.375 19.0938 13 18.2375 13.725 17.4375C14.275 16.7875 14.9125 16.25 15.6375 15.825C16.3625 15.4 17.15 15.1875 18 15.1875C18.85 15.1875 19.6375 15.3875 20.3625 15.7875C21.0875 16.1875 21.725 16.7125 22.275 17.3625C22.975 18.1625 23.5938 19.025 24.1313 19.95C24.6688 20.875 25.3 21.7375 26.025 22.5375C26.9 23.4875 27.7813 24.45 28.6688 25.425C29.5563 26.4 30 27.5375 30 28.8375C30 30.0125 29.6188 31.0313 28.8563 31.8938C28.0938 32.7563 27.15 33.1875 26.025 33.1875C24.675 33.1875 23.3375 33.075 22.0125 32.85C20.6875 32.625 19.35 32.5125 18 32.5125C16.65 32.5125 15.3125 32.625 13.9875 32.85C12.6625 33.075 11.325 33.1875 9.975 33.1875Z" fill="#4889EF"/>
</g>
<path d="M46.968 19.12C46.456 19.12 46.048 18.992 45.744 18.736C45.456 18.464 45.312 18.072 45.312 17.56C45.312 17.048 45.456 16.664 45.744 16.408C46.048 16.136 46.456 16 46.968 16H49.8C51.16 15.984 52.48 15.968 53.76 15.952C55.04 15.936 56.376 15.896 57.768 15.832C57.784 15.672 57.792 15.52 57.792 15.376C57.792 15.232 57.792 15.096 57.792 14.968V14.056C57.792 13.88 57.76 13.76 57.696 13.696C57.632 13.616 57.512 13.576 57.336 13.576H47.256C46.744 13.576 46.328 13.432 46.008 13.144C45.704 12.856 45.552 12.448 45.552 11.92C45.552 11.392 45.704 10.992 46.008 10.72C46.328 10.432 46.744 10.288 47.256 10.288H59.28C60.832 10.288 61.608 11.048 61.608 12.568V14.8C61.608 15.216 61.592 15.72 61.56 16.312C61.528 16.888 61.488 17.48 61.44 18.088C61.392 18.696 61.328 19.296 61.248 19.888C61.184 20.464 61.12 20.96 61.056 21.376C60.96 21.888 60.72 22.296 60.336 22.6C59.952 22.904 59.456 23.016 58.848 22.936C58.24 22.84 57.816 22.6 57.576 22.216C57.352 21.832 57.28 21.376 57.36 20.848C57.392 20.528 57.424 20.208 57.456 19.888C57.504 19.552 57.544 19.208 57.576 18.856C56.248 18.952 54.952 19.024 53.688 19.072C52.44 19.12 51.144 19.136 49.8 19.12H46.968ZM44.64 28.72C44.096 28.72 43.672 28.584 43.368 28.312C43.064 28.04 42.912 27.632 42.912 27.088C42.912 26.544 43.064 26.136 43.368 25.864C43.672 25.592 44.096 25.456 44.64 25.456H49.896V21.88C49.896 21.368 50.056 20.944 50.376 20.608C50.696 20.272 51.184 20.104 51.84 20.104C52.496 20.104 52.984 20.272 53.304 20.608C53.624 20.944 53.784 21.368 53.784 21.88V25.456H62.64C63.184 25.456 63.608 25.592 63.912 25.864C64.216 26.136 64.368 26.544 64.368 27.088C64.368 27.632 64.216 28.04 63.912 28.312C63.608 28.584 63.184 28.72 62.64 28.72H44.64ZM81.8574 10.96C81.8574 10.4 82.0334 9.968 82.3854 9.664C82.7534 9.36 83.2174 9.208 83.7774 9.208C84.3374 9.208 84.7934 9.36 85.1454 9.664C85.5134 9.968 85.6974 10.4 85.6974 10.96V21.16C85.6974 21.72 85.5134 22.152 85.1454 22.456C84.7934 22.76 84.3374 22.912 83.7774 22.912C83.2174 22.912 82.7534 22.76 82.3854 22.456C82.0334 22.152 81.8574 21.72 81.8574 21.16V10.96ZM77.8014 22.048C78.4094 22.048 78.8734 22.2 79.1934 22.504C79.5294 22.808 79.6974 23.232 79.6974 23.776V24.64C79.6974 25.072 79.8814 25.472 80.2494 25.84C80.6174 26.208 81.0734 26.552 81.6174 26.872C82.1774 27.176 82.7774 27.448 83.4174 27.688C84.0734 27.928 84.6814 28.136 85.2414 28.312C85.7374 28.472 86.0814 28.744 86.2734 29.128C86.4814 29.528 86.4974 29.96 86.3214 30.424C86.1454 30.888 85.8494 31.176 85.4334 31.288C85.0334 31.4 84.5854 31.392 84.0894 31.264C82.9214 30.976 81.7854 30.56 80.6814 30.016C79.5774 29.472 78.6174 28.816 77.8014 28.048C76.9854 28.816 76.0254 29.488 74.9214 30.064C73.8174 30.656 72.6814 31.096 71.5134 31.384C71.0174 31.512 70.5614 31.52 70.1454 31.408C69.7454 31.296 69.4574 31.008 69.2814 30.544C69.1054 30.08 69.1134 29.648 69.3054 29.248C69.5134 28.864 69.8654 28.592 70.3614 28.432C70.9214 28.256 71.5214 28.04 72.1614 27.784C72.8174 27.528 73.4174 27.24 73.9614 26.92C74.5214 26.6 74.9854 26.248 75.3534 25.864C75.7214 25.48 75.9054 25.072 75.9054 24.64V23.776C75.9054 23.232 76.0654 22.808 76.3854 22.504C76.7214 22.2 77.1934 22.048 77.8014 22.048ZM78.5934 12.928C78.5934 14.08 78.3614 15.16 77.8974 16.168C77.4494 17.16 76.8094 18.064 75.9774 18.88C75.1614 19.696 74.1774 20.4 73.0254 20.992C71.8894 21.568 70.6334 22.008 69.2574 22.312C68.7774 22.424 68.3374 22.392 67.9374 22.216C67.5374 22.024 67.2734 21.68 67.1454 21.184C67.0014 20.688 67.0414 20.264 67.2654 19.912C67.4894 19.56 67.8494 19.32 68.3454 19.192C69.3054 18.952 70.1854 18.648 70.9854 18.28C71.7854 17.896 72.4814 17.456 73.0734 16.96C73.6654 16.464 74.1214 15.92 74.4414 15.328C74.7774 14.736 74.9454 14.104 74.9454 13.432V13.168C74.9454 12.992 74.9134 12.872 74.8494 12.808C74.8014 12.728 74.6894 12.688 74.5134 12.688H69.0894C68.5774 12.688 68.1694 12.568 67.8654 12.328C67.5774 12.088 67.4334 11.712 67.4334 11.2C67.4334 10.688 67.5774 10.312 67.8654 10.072C68.1694 9.832 68.5774 9.712 69.0894 9.712H76.4574C77.1934 9.712 77.7294 9.88 78.0654 10.216C78.4174 10.536 78.5934 10.992 78.5934 11.584V12.928ZM93.2805 19.12C92.7685 19.12 92.3605 18.992 92.0565 18.736C91.7685 18.464 91.6245 18.072 91.6245 17.56C91.6245 17.048 91.7685 16.664 92.0565 16.408C92.3605 16.136 92.7685 16 93.2805 16H96.1125C97.4725 15.984 98.7925 15.968 100.073 15.952C101.353 15.936 102.689 15.896 104.081 15.832C104.097 15.672 104.105 15.52 104.105 15.376C104.105 15.232 104.105 15.096 104.105 14.968V14.056C104.105 13.88 104.073 13.76 104.009 13.696C103.945 13.616 103.825 13.576 103.649 13.576H93.5685C93.0565 13.576 92.6405 13.432 92.3205 13.144C92.0165 12.856 91.8645 12.448 91.8645 11.92C91.8645 11.392 92.0165 10.992 92.3205 10.72C92.6405 10.432 93.0565 10.288 93.5685 10.288H105.593C107.145 10.288 107.921 11.048 107.921 12.568V14.8C107.921 15.216 107.905 15.72 107.873 16.312C107.841 16.888 107.801 17.48 107.753 18.088C107.705 18.696 107.641 19.296 107.561 19.888C107.497 20.464 107.433 20.96 107.369 21.376C107.273 21.888 107.033 22.296 106.649 22.6C106.265 22.904 105.769 23.016 105.161 22.936C104.553 22.84 104.129 22.6 103.889 22.216C103.665 21.832 103.593 21.376 103.673 20.848C103.705 20.528 103.737 20.208 103.769 19.888C103.817 19.552 103.857 19.208 103.889 18.856C102.561 18.952 101.265 19.024 100.001 19.072C98.7525 19.12 97.4565 19.136 96.1125 19.12H93.2805ZM90.9525 28.72C90.4085 28.72 89.9845 28.584 89.6805 28.312C89.3765 28.04 89.2245 27.632 89.2245 27.088C89.2245 26.544 89.3765 26.136 89.6805 25.864C89.9845 25.592 90.4085 25.456 90.9525 25.456H96.2085V21.88C96.2085 21.368 96.3685 20.944 96.6885 20.608C97.0085 20.272 97.4965 20.104 98.1525 20.104C98.8085 20.104 99.2965 20.272 99.6165 20.608C99.9365 20.944 100.097 21.368 100.097 21.88V25.456H108.953C109.497 25.456 109.921 25.592 110.225 25.864C110.529 26.136 110.681 26.544 110.681 27.088C110.681 27.632 110.529 28.04 110.225 28.312C109.921 28.584 109.497 28.72 108.953 28.72H90.9525ZM128.17 10.96C128.17 10.4 128.346 9.968 128.698 9.664C129.066 9.36 129.53 9.208 130.09 9.208C130.65 9.208 131.106 9.36 131.458 9.664C131.826 9.968 132.01 10.4 132.01 10.96V21.16C132.01 21.72 131.826 22.152 131.458 22.456C131.106 22.76 130.65 22.912 130.09 22.912C129.53 22.912 129.066 22.76 128.698 22.456C128.346 22.152 128.17 21.72 128.17 21.16V10.96ZM124.114 22.048C124.722 22.048 125.186 22.2 125.506 22.504C125.842 22.808 126.01 23.232 126.01 23.776V24.64C126.01 25.072 126.194 25.472 126.562 25.84C126.93 26.208 127.386 26.552 127.93 26.872C128.49 27.176 129.09 27.448 129.73 27.688C130.386 27.928 130.994 28.136 131.554 28.312C132.05 28.472 132.394 28.744 132.586 29.128C132.794 29.528 132.81 29.96 132.634 30.424C132.458 30.888 132.162 31.176 131.746 31.288C131.346 31.4 130.898 31.392 130.402 31.264C129.234 30.976 128.098 30.56 126.994 30.016C125.89 29.472 124.93 28.816 124.114 28.048C123.298 28.816 122.338 29.488 121.234 30.064C120.13 30.656 118.994 31.096 117.826 31.384C117.33 31.512 116.874 31.52 116.458 31.408C116.058 31.296 115.77 31.008 115.594 30.544C115.418 30.08 115.426 29.648 115.618 29.248C115.826 28.864 116.178 28.592 116.674 28.432C117.234 28.256 117.834 28.04 118.474 27.784C119.13 27.528 119.73 27.24 120.274 26.92C120.834 26.6 121.298 26.248 121.666 25.864C122.034 25.48 122.218 25.072 122.218 24.64V23.776C122.218 23.232 122.378 22.808 122.698 22.504C123.034 22.2 123.506 22.048 124.114 22.048ZM124.906 12.928C124.906 14.08 124.674 15.16 124.21 16.168C123.762 17.16 123.122 18.064 122.29 18.88C121.474 19.696 120.49 20.4 119.338 20.992C118.202 21.568 116.946 22.008 115.57 22.312C115.09 22.424 114.65 22.392 114.25 22.216C113.85 22.024 113.586 21.68 113.458 21.184C113.314 20.688 113.354 20.264 113.578 19.912C113.802 19.56 114.162 19.32 114.658 19.192C115.618 18.952 116.498 18.648 117.298 18.28C118.098 17.896 118.794 17.456 119.386 16.96C119.978 16.464 120.434 15.92 120.754 15.328C121.09 14.736 121.258 14.104 121.258 13.432V13.168C121.258 12.992 121.226 12.872 121.162 12.808C121.114 12.728 121.002 12.688 120.826 12.688H115.402C114.89 12.688 114.482 12.568 114.178 12.328C113.89 12.088 113.746 11.712 113.746 11.2C113.746 10.688 113.89 10.312 114.178 10.072C114.482 9.832 114.89 9.712 115.402 9.712H122.77C123.506 9.712 124.042 9.88 124.378 10.216C124.73 10.536 124.906 10.992 124.906 11.584V12.928Z" fill="black"/>
</svg>
