<svg width="current" height="current" viewBox="0 0 24 24" fill="none" xmlns="http://www.w3.org/2000/svg">
<path d="M4.49902 12.0002C5.87974 12.0002 6.99902 10.881 6.99902 9.50024C6.99902 8.11953 5.87974 7.00024 4.49902 7.00024C3.11831 7.00024 1.99902 8.11953 1.99902 9.50024C1.99902 10.881 3.11831 12.0002 4.49902 12.0002Z" fill="#current" fill-opacity="0.91"/>
<path d="M8.99902 8C10.3797 8 11.499 6.88071 11.499 5.5C11.499 4.11929 10.3797 3 8.99902 3C7.61831 3 6.49902 4.11929 6.49902 5.5C6.49902 6.88071 7.61831 8 8.99902 8Z" fill="#current" fill-opacity="0.91"/>
<path d="M14.999 8C16.3797 8 17.499 6.88071 17.499 5.5C17.499 4.11929 16.3797 3 14.999 3C13.6183 3 12.499 4.11929 12.499 5.5C12.499 6.88071 13.6183 8 14.999 8Z" fill="#current" fill-opacity="0.91"/>
<path d="M19.499 12.0002C20.8797 12.0002 21.999 10.881 21.999 9.50024C21.999 8.11953 20.8797 7.00024 19.499 7.00024C18.1183 7.00024 16.999 8.11953 16.999 9.50024C16.999 10.881 18.1183 12.0002 19.499 12.0002Z" fill="#current" fill-opacity="0.91"/>
<path d="M17.3406 14.86C16.4706 13.84 15.7406 12.97 14.8606 11.95C14.4006 11.41 13.8106 10.87 13.1106 10.63C13.0006 10.59 12.8906 10.56 12.7806 10.54C12.5306 10.5 12.2606 10.5 12.0006 10.5C11.7406 10.5 11.4706 10.5 11.2106 10.55C11.1006 10.57 10.9906 10.6 10.8806 10.64C10.1806 10.88 9.60063 11.42 9.13063 11.96C8.26063 12.98 7.53063 13.85 6.65063 14.87C5.34063 16.18 3.73063 17.63 4.03063 19.66C4.32063 20.68 5.05063 21.69 6.36063 21.98C7.09063 22.13 9.42063 21.54 11.9006 21.54H12.0806C14.5606 21.54 16.8906 22.12 17.6206 21.98C18.9306 21.69 19.6606 20.67 19.9506 19.66C20.2606 17.62 18.6506 16.17 17.3406 14.86Z" fill="#current" fill-opacity="0.91"/>
</svg>
