<svg width="current" height="current" viewBox="0 0 24 24" fill="none" xmlns="http://www.w3.org/2000/svg">
<mask id="mask0_566_109" style="mask-type:alpha" maskUnits="userSpaceOnUse" x="0" y="0" width="24" height="24">
<rect width="24" height="24" fill="#D9D9D9"/>
</mask>
<g mask="url(#mask0_566_109)">
<path d="M7 17.2217V15.3763H14.1C15.15 15.3763 16.0625 15.0688 16.8375 14.4536C17.6125 13.8385 18 13.0696 18 12.1469C18 11.2243 17.6125 10.4554 16.8375 9.84023C16.0625 9.22511 15.15 8.91755 14.1 8.91755H7.8L10.4 11.3165L9 12.6083L4 7.99487L9 3.38147L10.4 4.67322L7.8 7.07219H14.1C15.7167 7.07219 17.1042 7.5566 18.2625 8.52541C19.4208 9.49423 20 10.7014 20 12.1469C20 13.5925 19.4208 14.7996 18.2625 15.7685C17.1042 16.7373 15.7167 17.2217 14.1 17.2217H7Z" fill="#1C1B1F"/>
</g>
</svg>
