<svg width="current" height="current" viewBox="0 0 18 24" fill="none" xmlns="http://www.w3.org/2000/svg">
<path d="M17.9576 5.24712L14.4849 3.47299L12.7105 0L9.00025 1.20121L5.28998 0L3.51596 3.47299L0.0429688 5.24712L1.24418 8.95728L0.0430803 12.6677L3.51585 14.4418L3.99006 15.3701V23.9999L9.00069 21.4953L14.0105 24V15.37L14.4848 14.4418L17.9575 12.6677L16.7564 8.95728L17.9576 5.24712ZM9.0008 19.6229L5.66504 21.2903V17.7935L9.00036 16.7138L12.3358 17.7936V21.2903L9.0008 19.6229ZM13.2401 13.197L11.8686 15.8818L9.00036 14.9533L6.13232 15.8818L4.76083 13.197L2.07614 11.8255L3.00468 8.95728L2.07636 6.08924L4.76094 4.71775L6.13243 2.03306L9.00047 2.9616L11.8687 2.03306L13.2402 4.71775L15.9247 6.08924L14.9964 8.95728L15.9249 11.8255L13.2401 13.197Z" fill="black"/>
<path d="M9.00048 4.36475C6.46775 4.36475 4.40723 6.42494 4.40723 8.95722C4.40723 11.4901 6.46775 13.5507 9.00048 13.5507C11.5329 13.5507 13.5932 11.4901 13.5932 8.95722C13.5932 6.42505 11.5329 4.36475 9.00048 4.36475ZM9.00048 11.8758C7.39127 11.8758 6.08209 10.5665 6.08209 8.95722C6.08209 7.34846 7.39127 6.03961 9.00048 6.03961C10.6094 6.03961 11.9183 7.34846 11.9183 8.95722C11.9183 10.5667 10.6094 11.8758 9.00048 11.8758Z" fill="black"/>
</svg>
