<svg width="current" height="current" viewBox="0 0 24 24" fill="none" xmlns="http://www.w3.org/2000/svg">
<mask id="mask0_178_230" style="mask-type:alpha" maskUnits="userSpaceOnUse" x="0" y="0" width="24" height="24">
<rect width="24" height="24" fill="#D9D9D9"/>
</mask>
<g mask="url(#mask0_178_230)">
<path d="M12.0001 14.0479C11.7033 14.0479 11.4544 13.9474 11.2536 13.7466C11.0527 13.5458 10.9523 13.2969 10.9523 13C10.9523 12.7031 11.0527 12.4543 11.2536 12.2535C11.4544 12.0526 11.7033 11.9522 12.0001 11.9522C12.297 11.9522 12.5459 12.0526 12.7467 12.2535C12.9476 12.4543 13.048 12.7031 13.048 13C13.048 13.2969 12.9476 13.5458 12.7467 13.7466C12.5459 13.9474 12.297 14.0479 12.0001 14.0479ZM8.00015 14.0479C7.70327 14.0479 7.45441 13.9474 7.25357 13.7466C7.05274 13.5458 6.95233 13.2969 6.95233 13C6.95233 12.7031 7.05274 12.4543 7.25357 12.2535C7.45441 12.0526 7.70327 11.9522 8.00015 11.9522C8.29703 11.9522 8.54589 12.0526 8.74673 12.2535C8.94756 12.4543 9.04798 12.7031 9.04798 13C9.04798 13.2969 8.94756 13.5458 8.74673 13.7466C8.54589 13.9474 8.29703 14.0479 8.00015 14.0479ZM16.0001 14.0479C15.7088 14.0479 15.4614 13.9474 15.2578 13.7466C15.0541 13.5458 14.9523 13.2969 14.9523 13C14.9523 12.7031 15.0541 12.4543 15.2578 12.2535C15.4614 12.0526 15.7099 11.9522 16.0031 11.9522C16.2964 11.9522 16.5439 12.0526 16.7455 12.2535C16.9472 12.4543 17.048 12.7031 17.048 13C17.048 13.2969 16.9476 13.5458 16.7467 13.7466C16.5459 13.9474 16.297 14.0479 16.0001 14.0479ZM12.0001 18.0479C11.7033 18.0479 11.4544 17.946 11.2536 17.7424C11.0527 17.5388 10.9523 17.2903 10.9523 16.997C10.9523 16.7037 11.0527 16.4563 11.2536 16.2547C11.4544 16.053 11.7033 15.9522 12.0001 15.9522C12.297 15.9522 12.5459 16.0526 12.7467 16.2535C12.9476 16.4543 13.048 16.7031 13.048 17C13.048 17.2913 12.9476 17.5388 12.7467 17.7424C12.5459 17.946 12.297 18.0479 12.0001 18.0479ZM8.00015 18.0479C7.70327 18.0479 7.45441 17.946 7.25357 17.7424C7.05274 17.5388 6.95233 17.2903 6.95233 16.997C6.95233 16.7037 7.05274 16.4563 7.25357 16.2547C7.45441 16.053 7.70327 15.9522 8.00015 15.9522C8.29703 15.9522 8.54589 16.0526 8.74673 16.2535C8.94756 16.4543 9.04798 16.7031 9.04798 17C9.04798 17.2913 8.94756 17.5388 8.74673 17.7424C8.54589 17.946 8.29703 18.0479 8.00015 18.0479ZM16.0001 18.0479C15.7088 18.0479 15.4614 17.946 15.2578 17.7424C15.0541 17.5388 14.9523 17.2903 14.9523 16.997C14.9523 16.7037 15.0541 16.4563 15.2578 16.2547C15.4614 16.053 15.7099 15.9522 16.0031 15.9522C16.2964 15.9522 16.5439 16.0526 16.7455 16.2535C16.9472 16.4543 17.048 16.7031 17.048 17C17.048 17.2913 16.9476 17.5388 16.7467 17.7424C16.5459 17.946 16.297 18.0479 16.0001 18.0479ZM5.0719 22.2033C4.44218 22.2033 3.90558 21.9816 3.4621 21.5381C3.01862 21.0946 2.79688 20.558 2.79688 19.9283V6.07178C2.79688 5.44206 3.01862 4.90546 3.4621 4.46198C3.90558 4.01849 4.44218 3.79675 5.0719 3.79675H6.00015V1.79675H8.13765V3.79675H15.8626V1.79675H18.0001V3.79675H18.9284C19.5581 3.79675 20.0947 4.01849 20.5382 4.46198C20.9817 4.90546 21.2034 5.44206 21.2034 6.07178V19.9283C21.2034 20.558 20.9817 21.0946 20.5382 21.5381C20.0947 21.9815 19.5581 22.2033 18.9284 22.2033L5.0719 22.2033ZM5.0719 19.9283H18.9284V10H5.0719V19.9283Z" fill="#1C1B1F"/>
</g>
</svg>
